<svg width="20" height="24" viewBox="0 0 20 24" fill="none" xmlns="http://www.w3.org/2000/svg">
<path d="M14.1878 9.5151V4.89262C14.1878 3.86023 13.7422 2.87013 12.949 2.14012C12.1557 1.41011 11.0799 1 9.95815 1C8.83638 1 7.76055 1.41011 6.96734 2.14012C6.17413 2.87013 5.72851 3.86023 5.72851 4.89262V9.5151" stroke="#5E5E5E" stroke-width="1.55465" stroke-linecap="round" stroke-linejoin="round"/>
<path d="M15.8797 9.51511H4.03666C2.63508 9.51511 1.49888 10.5608 1.49888 11.8507V20.4144C1.49888 21.7043 2.63508 22.75 4.03666 22.75H15.8797C17.2812 22.75 18.4174 21.7043 18.4174 20.4144V11.8507C18.4174 10.5608 17.2812 9.51511 15.8797 9.51511Z" stroke="#5E5E5E" stroke-width="1.55465" stroke-linecap="round" stroke-linejoin="round"/>
</svg>
